# xmcd
#
# Track frame offsets: 
#        150
#        15867
#        47925
#        83747
#        113245
#        148632
#        172457
#        215320
#        310415
#
# Disc length: 4292 seconds
#
# Revision: 0
# Processed by: cddbd v1.5.2PL0 Copyright (c) Steve Scherf et al.
# Submitted via: ExactAudioCopy v1.3
#
DISCID=7a10c209
DTITLE=John Lee Hooker - Hard Times
DYEAR=1997
DGENRE=Blues
TTITLE0=Sally Mae
TTITLE1=Rock With Me
TTITLE2=Hobo Blues
TTITLE3=Should've Been Gone
TTITLE4=Hard Times
TTITLE5=Hooker's Shuffle
TTITLE6=I Hate The Day I Was Born
TTITLE7=Interview No.1 (1973)
TTITLE8=Interview No.2 (1973)
EXTD=
EXTT0=
EXTT1=
EXTT2=
EXTT3=
EXTT4=
EXTT5=
EXTT6=
EXTT7=
EXTT8=
PLAYORDER=
